<svg xmlns="http://www.w3.org/2000/svg" viewBox="0 0 367.85 164.53">
  <defs>
    <style>
      .cls-1 {
        fill: #0f0e0d;
      }

      .cls-2 {
        fill: #3a3839;
      }

      .cls-3 {
        fill: #c6b9b7;
      }

      .cls-4, .cls-5 {
        fill: none;
        stroke-miterlimit: 10;
        stroke-width: 2px;
      }

      .cls-4 {
        stroke: #0f0e0d;
      }

      .cls-5 {
        stroke: #6f696f;
      }

      .cls-6 {
        fill: #fff;
      }

      .cls-7 {
        fill: #373537;
      }
    </style>
  </defs>
  <g id="Слой_2" data-name="Слой 2">
    <g id="Слой_1" data-name="Слой 1">
      <polygon class="cls-1" points="3.21 96.04 3.21 99.06 0 99.06 0 142.4 3.21 142.4 3.21 145.79 159.11 145.79 159.11 143.36 162.16 143.36 162.16 120.4 168.68 120.4 168.68 145.79 188.33 145.79 188.33 120.51 195.29 120.51 195.29 143.36 198.39 143.36 198.39 145.79 255.1 145.79 255.1 135.56 265.17 135.56 265.17 145.79 341.74 145.79 341.74 141.64 346.17 145.79 367.85 145.79 367.85 123.39 364.37 120.92 367.85 118.46 367.85 96.04 346.66 96.04 341.74 98.66 341.74 96.04 263.84 96.04 260.74 98.66 258.15 96.04 82.55 96.04 82.55 99.87 79.94 99.87 79.94 122.95 59.69 122.95 59.69 96.04 3.21 96.04"/>
      <polyline class="cls-2" points="16.88 107.78 26.5 107.78 26.5 116.66 16.88 116.66 16.88 107.78"/>
      <polyline class="cls-2" points="42.93 132.57 42.93 143.36 79.94 143.36 79.94 132.57 42.93 132.57"/>
      <polyline class="cls-2" points="82.55 129.14 85.86 129.14 85.86 132.57 119.78 132.57 119.78 143.36 85.79 143.36 85.79 139.89 82.55 139.89 82.55 129.14"/>
      <polyline class="cls-2" points="119.78 106.02 119.78 116.81 106.11 116.81 106.11 111.88 96.59 111.88 96.59 106.02 119.78 106.02"/>
      <polyline class="cls-2" points="106.11 119.35 96.59 119.35 96.59 125.05 106.11 125.05 106.11 119.35"/>
      <polyline class="cls-2" points="136.15 116.81 138.77 116.81 138.77 111.99 155.4 111.99 155.4 115.31 159.11 115.31 159.11 106.29 136.15 106.29 136.15 116.81"/>
      <polyline class="cls-2" points="138.81 119.24 138.81 122.45 145.78 122.45 145.78 119.24 138.81 119.24"/>
      <polyline class="cls-2" points="122.27 128.81 125.7 128.81 125.7 132.57 155.96 132.57 155.96 129.14 159.11 129.14 159.11 140.04 155.87 140.04 155.87 143.36 125.48 143.36 125.48 139.82 122.27 139.82 122.27 128.81"/>
      <polyline class="cls-2" points="162.16 105.74 171.73 105.74 171.73 116.81 162.16 116.81 162.16 105.74"/>
      <polyline class="cls-2" points="185.84 105.57 195.52 105.57 195.52 116.81 185.84 116.81 185.84 105.57"/>
      <polyline class="cls-2" points="212.61 105.74 235.57 105.74 235.57 116.81 222.52 116.81 222.52 111.88 212.61 111.88 212.61 105.74"/>
      <polyline class="cls-2" points="222.52 119.68 222.52 125.27 212.89 125.27 212.89 119.68 222.52 119.68"/>
      <polyline class="cls-2" points="198.39 129.47 201.88 129.47 201.88 132.52 235.57 132.52 235.57 143.47 201.93 143.47 201.93 139.54 198.39 139.54 198.39 129.47"/>
      <polyline class="cls-2" points="238.5 132.52 252.06 132.52 252.06 143.47 238.5 143.47 238.5 132.52"/>
      <polyline class="cls-2" points="252.06 115.58 254.93 115.58 254.93 118.85 258.09 118.85 258.09 122.28 262.07 122.28 262.07 118.8 265.33 118.8 265.33 115.58 267.94 115.58 267.94 126.54 265.11 126.54 265.11 129.86 262.24 129.86 262.24 133.4 257.98 133.4 257.98 130.03 254.66 130.03 254.66 126.59 252.06 126.59 252.06 115.58"/>
      <polyline class="cls-2" points="267.94 132.52 281.99 132.52 281.99 143.47 267.94 143.47 267.94 132.52"/>
      <polyline class="cls-2" points="285.37 129.09 288.02 129.09 288.02 132.52 321.99 132.52 321.99 143.19 288.07 143.19 288.07 139.87 285.37 139.87 285.37 129.09"/>
      <polyline class="cls-2" points="308.65 119.4 308.65 125.22 299.75 125.22 299.75 119.4 308.65 119.4"/>
      <polyline class="cls-2" points="299.25 105.85 321.99 105.85 321.99 116.53 308.65 116.53 308.65 111.99 299.25 111.99 299.25 105.85"/>
      <polyline class="cls-2" points="365.2 106.02 361.66 106.02 361.66 109.39 358.39 109.39 358.39 112.27 354.74 112.27 354.74 118.8 358.44 118.8 358.44 120.23 361.54 120.23 361.54 116.81 365.2 116.81 365.2 106.02"/>
      <polyline class="cls-2" points="338.48 122.17 341.3 122.17 341.3 125.66 344.28 125.66 344.28 129.03 347.33 129.03 347.33 132.35 365.2 132.35 365.2 143.19 348.21 143.19 348.21 140.04 344.45 140.04 344.45 136.45 341.3 136.45 341.3 133.07 338.48 133.07 338.48 122.17"/>
      <rect class="cls-2" x="324.7" y="132.52" width="13.78" height="10.95"/>
    </g>
    <g id="Слой_2-2" data-name="Слой 2">
      <polygon class="cls-3" points="42.93 98.66 42.93 132.57 79.94 132.57 79.94 125.22 56.93 125.22 56.93 98.66 42.93 98.66"/>
      <path class="cls-3" d="M119.78,98.66V106H96.59v5.86h9.52v7.48H96.59v5.7h23.19v7.52s-33.93,0-33.93,0v-3.43H82.53v-27h3.54V98.66Z"/>
      <polygon class="cls-3" points="162.16 98.66 162.16 105.74 171.73 105.74 171.73 132.52 185.84 132.52 185.84 105.57 195.52 105.57 195.52 98.66 162.16 98.66"/>
      <polygon class="cls-3" points="201.88 98.66 201.88 102.2 198.39 102.2 198.39 129.47 201.88 129.47 201.88 132.52 235.57 132.52 235.57 125.27 212.89 125.27 212.89 119.68 222.52 119.68 222.52 111.88 212.61 111.88 212.61 105.74 235.57 105.74 235.57 98.66 201.88 98.66"/>
      <polygon class="cls-3" points="238.5 98.66 238.5 132.52 252.06 132.52 252.06 115.58 254.93 115.58 254.93 118.85 258.09 118.85 258.09 122.28 262.07 122.28 262.07 118.8 265.33 118.8 265.33 115.58 267.94 115.58 267.94 132.52 281.99 132.52 281.99 98.66 267.05 98.66 267.05 101.7 264.84 101.7 264.84 104.19 262.73 104.19 262.73 107.84 258.64 107.84 258.64 104.47 255.76 104.47 255.76 101.64 252.44 101.64 252.44 98.66 238.5 98.66"/>
      <path class="cls-3" d="M288.35,98.66v3.54h-3v26.64H288v3.68s34,.33,34,0v-7.31H299.75v-5.8h8.9V112h-9.4v-6.14H322V98.66Z"/>
      <polygon class="cls-3" points="324.7 98.66 324.7 132.66 338.48 132.66 338.48 122.17 341.3 122.17 341.3 125.66 344.28 125.66 344.28 129.03 347.33 129.03 347.33 132.35 365.2 132.35 365.2 125.16 361.38 125.16 361.38 122.06 358.44 122.06 358.44 118.8 354.74 118.8 354.74 112.27 358.39 112.27 358.39 109.39 361.66 109.39 361.66 106.02 365.2 106.02 365.2 98.66 348.16 98.66 348.16 101.59 344.94 101.59 344.94 104.91 342.18 104.91 342.18 108.23 338.58 108.23 338.58 98.66 324.7 98.66"/>
      <path class="cls-3" d="M37,102.2V98.66H6.47v3.43H2.93v26.75H6.47v3.39H37v-3.39h3.1V102.2ZM26.5,123.61H16.89V107.77H26.5Z"/>
      <polygon class="cls-3" points="138.7 111.99 155.4 111.99 155.4 115.31 159.11 115.31 159.11 129.14 155.96 129.14 155.96 132.57 125.7 132.57 125.7 128.81 122.27 128.81 122.27 102.03 125.42 102.03 125.42 98.66 159.11 98.66 159.11 106.29 136.15 106.29 136.15 122.45 145.78 122.45 145.78 119.24 138.81 119.24 138.7 111.99"/>
      <polygon class="cls-2" points="2.93 128.86 6.47 128.86 6.47 132.24 36.96 132.24 36.96 128.86 40.05 128.86 40.05 140.3 36.99 140.3 36.99 143.36 6.57 143.36 6.57 139.74 2.93 139.74 2.93 128.86"/>
      <rect class="cls-2" x="171.73" y="132.52" width="14.11" height="10.95"/>
      <rect class="cls-1" x="52.44" y="110.02" width="1.96" height="2.49"/>
      <rect class="cls-1" x="45.84" y="110.02" width="1.96" height="2.49"/>
      <rect class="cls-1" x="45.84" y="107.71" width="8.56" height="2.65"/>
      <rect class="cls-1" x="48.52" y="105.87" width="3.19" height="3.19"/>
      <rect class="cls-1" x="51.71" y="102.68" width="3.19" height="3.19"/>
      <rect class="cls-1" x="45.33" y="102.68" width="3.19" height="3.19"/>
      <polyline class="cls-4" points="353.63 144.69 353.63 136.14 357.5 136.14 357.5 138 361.38 138 361.38 134.73"/>
      <polyline class="cls-4" points="366.36 109.61 363.26 109.61 363.26 115.03"/>
      <line class="cls-4" x1="322.98" y1="135.56" x2="329.07" y2="135.56"/>
      <polyline class="cls-4" points="333.72 144.69 333.72 139.49 337.04 139.49 337.04 135.56 339.25 135.56"/>
      <polyline class="cls-4" points="322.99 138 315.64 138 315.64 141.7 310.04 141.7 310.04 134.73 305.94 134.73 305.94 136.14"/>
      <polyline class="cls-4" points="314.24 118.13 314.24 111.27 310.62 111.27 310.62 107.84 315.46 107.84 320.66 107.84"/>
      <polyline class="cls-4" points="283.6 136.47 276.73 136.47 276.73 140.68 273.96 140.68 273.96 135.56 266.33 135.56"/>
      <polyline class="cls-4" points="253.72 138 245.28 138 245.28 140.18 243.32 140.18 243.32 142.25"/>
      <polyline class="cls-4" points="227.38 119.24 227.38 111.19 231.7 111.19 231.7 108.5 236.68 108.5"/>
      <line class="cls-4" x1="206.14" y1="139.68" x2="206.14" y2="135.56"/>
      <polyline class="cls-4" points="196.84 135.56 207.28 135.56 217.7 135.56 217.7 139.04 212.61 139.04 212.61 141.66 209.02 141.66 209.02 145.79"/>
      <polyline class="cls-4" points="192.2 118.72 192.2 113.25 189.65 113.25 189.65 111.19"/>
      <polyline class="cls-4" points="170.4 136.25 177.15 136.25 177.15 139.68 186.89 139.68"/>
      <polyline class="cls-4" points="136.65 141.03 132 141.03 132 144.36"/>
      <line class="cls-4" x1="142.96" y1="141.66" x2="142.96" y2="144.8"/>
      <polyline class="cls-4" points="136.65 144.8 136.65 141.66 136.65 138 143.4 138 143.4 135.56 145.78 135.56"/>
      <polyline class="cls-4" points="114.7 118.72 114.7 111.94 109.32 111.94"/>
      <polyline class="cls-4" points="92.87 132.57 92.87 137.24 88.96 137.24 88.96 139.68"/>
      <line class="cls-4" x1="120.39" y1="140.18" x2="114.71" y2="140.18"/>
      <polyline class="cls-4" points="121.12 135.56 114.7 135.56 114.7 137.97 114.7 139.64 114.7 141.66 107.92 141.66 107.92 137.97 106.11 137.97"/>
      <polyline class="cls-4" points="80.72 135.56 75.52 135.56 75.52 138.6 71.48 138.6 71.48 143.8"/>
      <polyline class="cls-4" points="47.24 136.11 47.24 140.21 51.71 140.21 51.71 144.25"/>
      <polyline class="cls-4" points="13.33 141.31 21.24 141.31 21.24 137.97 24.51 137.97"/>
      <polyline class="cls-4" points="1.99 135.56 9.9 135.56 9.9 139.32 13.33 139.32 13.33 143.8"/>
      <polyline class="cls-5" points="351.27 132.35 351.27 127.28 353.63 127.28"/>
      <polyline class="cls-5" points="324.7 116.53 333.27 116.53 333.27 109.61 330.51 109.61 330.51 102.86"/>
      <polyline class="cls-5" points="292.45 98.66 292.45 107.18 295.1 107.18 295.1 112.32 291.89 112.32"/>
      <line class="cls-5" x1="243.32" y1="98.66" x2="243.32" y2="104.52"/>
      <polyline class="cls-5" points="281.99 105.57 273.96 105.57 273.96 109.83 270.98 109.83"/>
      <polyline class="cls-5" points="228.49 125.27 228.49 128.2 223.18 128.2"/>
      <polyline class="cls-5" points="167.85 105.74 167.85 101.15 176.93 101.15 176.93 98.66"/>
      <polyline class="cls-5" points="146.72 126.43 143.95 126.43 143.95 122.45"/>
      <polyline class="cls-5" points="122.27 120.43 126.36 120.43 126.36 115.58 133.33 115.58 133.33 111.94"/>
      <polyline class="cls-5" points="34.19 132.24 34.19 125.99 30.98 125.99 30.98 122.2"/>
      <polyline class="cls-5" points="2.93 106.73 8.52 106.73 8.52 104.11 13.33 104.11 13.33 98.66"/>
      <polyline class="cls-5" points="89.57 98.66 89.57 106.35 85.2 106.35 85.2 109.56"/>
      <polyline class="cls-5" points="42.93 118.3 47.24 118.3 47.24 122.56"/>
    </g>
    <polygon class="cls-1" points="126.3 138.92 126.3 164.53 137.33 164.53 137.33 157.37 147.01 157.37 147.01 164.53 178.61 164.53 178.61 157.65 179.87 157.65 179.87 164.53 190.73 164.53 190.73 150.72 193.33 150.72 193.33 164.53 204.74 164.53 204.74 150.39 208.09 150.39 208.09 164.53 218.34 164.53 218.34 157.65 223.55 157.65 223.55 150.32 228.8 150.32 228.8 164.53 312 164.53 312 138.92 270.65 138.92 270.65 150.69 274.75 150.69 274.75 152.56 259.52 152.29 259.54 138.92 126.3 138.92"/>
    <polyline class="cls-2" points="216.64 150.69 221.59 150.69 221.59 156.32 216.64 156.32 216.64 150.69"/>
    <polyline class="cls-2" points="209.65 157.65 216.64 157.65 216.64 163.37 209.65 163.37 209.65 157.65 216.64 157.65"/>
  </g>
  <g id="Слой_1-2" data-name="Слой 1">
    <polygon class="cls-1" points="67.3 138.92 76.6 138.92 80.02 142.34 83.42 138.95 101.87 138.95 101.87 143.67 105.37 143.67 105.37 138.92 115.78 138.92 115.78 153.49 113.68 153.49 113.68 155.47 112.02 155.47 112.02 157.41 108.89 157.41 108.89 164.53 98.95 164.53 98.95 157.21 95.56 157.21 95.56 155.47 93.59 155.47 93.59 164.53 82.74 164.53 82.74 159.41 77.75 159.41 77.75 164.53 67.3 164.53 67.3 138.92"/>
    <polygon class="cls-6" points="93.25 140.34 93.25 147.09 95.32 147.09 95.32 149 96.89 149 96.89 150.69 100.04 150.69 100.04 157.65 107.74 157.65 107.74 150.76 111.06 150.76 111.06 148.69 112.63 148.69 112.63 147.23 114.69 147.23 114.69 140.34 107.16 140.34 107.16 145.6 105.4 145.6 105.4 147.47 102.18 147.47 102.18 145.6 100.38 145.6 100.38 140.34 93.25 140.34"/>
    <polygon class="cls-6" points="190.42 140.26 190.42 143.84 195.64 143.84 195.64 157.65 202.66 157.65 202.66 143.8 207.82 143.8 207.82 140.26 190.42 140.26"/>
    <polygon class="cls-6" points="211.28 140.26 211.28 141.67 209.65 141.67 209.65 157.65 216.64 157.65 216.64 150.69 221.59 150.69 221.59 147.09 216.57 147.09 216.57 143.7 228.58 143.7 228.58 140.26 211.28 140.26"/>
    <polygon class="cls-6" points="251.31 140.3 251.31 157.69 270.18 157.69 270.18 154.19 258.06 154.19 258.06 140.3 251.31 140.3"/>
    <polygon class="cls-6" points="272.21 140.3 272.21 143.74 277.1 143.74 277.1 154.15 272.21 154.15 272.21 157.69 289.34 157.69 289.34 154.29 283.92 154.29 283.92 143.7 289.34 143.7 289.34 140.3 272.21 140.3"/>
    <polygon class="cls-6" points="69.03 140.34 75.85 140.34 75.85 141.7 77.89 141.7 77.89 143.7 79.38 143.7 79.38 145.77 81.35 145.77 81.35 143.84 83.08 143.84 83.08 141.77 84.94 141.77 84.94 140.34 91.86 140.34 91.86 157.65 84.13 157.65 84.13 148.32 82.91 148.32 82.91 150.62 81.35 150.62 81.35 152.76 79.45 152.76 79.45 150.72 77.82 150.72 77.82 148.45 76.6 148.45 76.6 157.65 69.03 157.65 69.03 140.34"/>
    <path class="cls-6" d="M166,142.14v-1.8l-15.31-.08,0,2h-1.8v13.6h1.9v1.77h15.64v-1.84h1.7V142.14Zm-5,12h-5.45V143.8H161Z"/>
    <path class="cls-6" d="M145.32,141.7v-1.36H128v17.31h7.54v-6.89H145.8v-1.51h1.49V141.7Zm-3,5.68h-7.17v-3.89h7.17Z"/>
    <polyline class="cls-2" points="69.03 157.65 76.6 157.65 76.6 163.37 69.03 163.37 69.03 157.76"/>
    <polygon class="cls-2" points="76.6 148.45 77.82 148.45 77.82 150.72 79.45 150.72 79.45 152.76 81.35 152.76 81.35 150.62 82.91 150.62 82.91 148.32 84.13 148.32 84.13 154.09 82.92 154.09 82.92 156.11 81.58 156.11 81.58 157.65 79.32 157.65 79.32 156.09 77.94 156.09 77.94 153.91 76.6 153.91 76.6 148.45"/>
    <polygon class="cls-2" points="93.25 147.09 95.32 147.09 95.32 149 96.89 149 96.89 150.69 100.04 150.69 100.04 156.09 97.02 156.09 97.02 154.42 95.22 154.42 95.22 152.15 93.25 152.15 93.25 147.09"/>
    <polygon class="cls-2" points="114.69 147.23 112.63 147.23 112.63 148.69 111.06 148.69 111.06 150.76 107.86 150.76 107.86 156.09 110.9 156.09 110.9 153.78 112.7 153.78 112.7 152.13 114.69 152.13 114.69 147.23"/>
    <rect class="cls-2" x="100.04" y="157.65" width="7.7" height="5.72"/>
    <rect class="cls-2" x="84.13" y="157.65" width="7.73" height="5.72"/>
    <rect class="cls-2" x="127.99" y="157.65" width="7.53" height="5.72"/>
    <polygon class="cls-2" points="147.29 149.25 145.81 149.25 145.81 150.76 135.53 150.76 135.53 156.19 145.43 156.19 145.43 154.16 147.29 154.16 147.29 149.25"/>
    <rect class="cls-2" x="135.19" y="143.49" width="7.17" height="3.89"/>
    <rect class="cls-2" x="155.59" y="143.8" width="5.45" height="5.74"/>
    <polygon class="cls-2" points="148.89 155.88 150.79 155.88 150.79 157.65 166.43 157.65 166.43 155.81 168.13 155.81 168.13 161.04 166.51 161.04 166.51 163.37 150.77 163.37 150.77 161.04 148.89 161.04 148.89 155.88"/>
    <path class="cls-6" d="M247.46,142.14v-1.8l-15.31-.08,0,2h-1.8v13.6h1.9v1.77h15.64v-1.84h1.7V142.14Zm-5,12H237V143.8h5.46Z"/>
    <rect class="cls-2" x="237.02" y="143.8" width="5.45" height="5.74"/>
    <polygon class="cls-2" points="230.33 155.88 232.23 155.88 232.23 157.65 247.87 157.65 247.87 155.81 249.57 155.81 249.57 161.04 247.95 161.04 247.95 163.37 232.21 163.37 232.21 161.04 230.33 161.04 230.33 155.88"/>
    <path class="cls-6" d="M308.46,141.87v-1.79L293.14,140v2h-1.8v13.6h1.9v1.77h15.64v-1.83h1.69V141.87Zm-5,12H298V143.54h5.45Z"/>
    <rect class="cls-2" x="298.02" y="143.54" width="5.45" height="5.74"/>
    <polygon class="cls-2" points="291.33 155.61 293.23 155.61 293.23 157.38 308.87 157.38 308.87 155.54 310.56 155.54 310.56 160.77 308.95 160.77 308.95 163.1 293.2 163.1 293.2 160.77 291.33 160.77 291.33 155.61"/>
    <rect class="cls-2" x="169.52" y="157.65" width="6.95" height="5.72"/>
    <rect class="cls-2" x="181.83" y="157.65" width="7.26" height="5.72"/>
    <rect class="cls-7" x="176.47" y="150.72" width="5.36" height="5.09"/>
    <rect class="cls-2" x="190.42" y="143.84" width="5.22" height="5.33"/>
    <rect class="cls-2" x="202.66" y="143.8" width="5.16" height="5.36"/>
    <rect class="cls-2" x="195.64" y="157.65" width="7.02" height="5.72"/>
    <polygon class="cls-2" points="216.57 143.7 228.58 143.7 228.58 149.16 221.59 149.16 221.59 147.09 216.64 147.09 216.57 143.7"/>
    <rect class="cls-2" x="251.31" y="157.69" width="18.86" height="5.68"/>
    <rect class="cls-2" x="272.21" y="143.74" width="4.89" height="5.54"/>
    <rect class="cls-2" x="283.92" y="143.7" width="5.43" height="5.58"/>
    <rect class="cls-2" x="272.21" y="157.69" width="17.13" height="5.68"/>
    <path class="cls-6" d="M189.09,147.2v-5.63h-2.4v-1.31H169.52v17.39h6.95v-6.93h5.36v6.93h7.26v-7h-2.24V147.2Zm-6.31-.27h-6.51V144h6.51Z"/>
    <rect class="cls-2" x="176.27" y="144.05" width="6.51" height="2.87"/>
  </g>
</svg>
