<svg xmlns="http://www.w3.org/2000/svg" viewBox="0 0 668.93 87.98">
  <defs>
    <style>
      .cls-1 {
        fill: #100e0d;
      }

      .cls-2 {
        fill: #3a3739;
      }

      .cls-3 {
        fill: #c6b9b7;
      }

      .cls-4, .cls-5 {
        fill: none;
        stroke-miterlimit: 10;
        stroke-width: 2px;
      }

      .cls-4 {
        stroke: #100e0d;
      }

      .cls-5 {
        stroke: #6e686e;
      }
    </style>
  </defs>
  <g id="Слой_1" data-name="Слой 1">
    <polygon class="cls-1" points="24.16 0 24.16 5.35 18.49 5.35 18.49 81.98 24.16 81.98 24.16 87.98 299.84 87.98 299.84 83.67 305.22 83.67 305.22 43.08 316.76 43.08 316.76 87.98 351.5 87.98 351.5 43.27 363.81 43.27 363.81 83.67 369.29 83.67 369.29 87.98 469.56 87.98 469.56 69.88 487.37 69.88 487.37 87.98 622.76 87.98 622.76 80.64 630.59 87.98 668.93 87.98 668.93 48.36 662.77 43.99 668.93 39.65 668.93 0 631.47 0 622.76 4.63 622.76 0 485.02 0 479.54 4.63 474.95 0 164.45 0 164.45 6.78 159.85 6.78 159.85 47.58 124.04 47.58 124.04 0 24.16 0"/>
    <polyline class="cls-2" points="48.33 20.77 65.35 20.77 65.35 36.47 48.33 36.47 48.33 20.77"/>
    <polyline class="cls-2" points="94.4 64.6 94.4 83.67 159.85 83.67 159.85 64.6 94.4 64.6"/>
    <polyline class="cls-2" points="164.45 58.53 170.31 58.53 170.31 64.6 230.28 64.6 230.28 83.67 170.19 83.67 170.19 77.54 164.45 77.54 164.45 58.53"/>
    <polyline class="cls-2" points="230.28 17.64 230.28 36.72 206.12 36.72 206.12 28.01 189.29 28.01 189.29 17.64 230.28 17.64"/>
    <polyline class="cls-2" points="206.12 41.22 189.29 41.22 189.29 51.29 206.12 51.29 206.12 41.22"/>
    <polyline class="cls-2" points="259.24 36.72 263.87 36.72 263.87 28.21 293.28 28.21 293.28 34.08 299.84 34.08 299.84 18.13 259.24 18.13 259.24 36.72"/>
    <polyline class="cls-2" points="263.94 41.02 263.94 46.7 276.26 46.7 276.26 41.02 263.94 41.02"/>
    <polyline class="cls-2" points="234.69 57.95 240.75 57.95 240.75 64.6 294.26 64.6 294.26 58.53 299.84 58.53 299.84 77.8 294.1 77.8 294.1 83.67 240.36 83.67 240.36 77.41 234.69 77.41 234.69 57.95"/>
    <polyline class="cls-2" points="305.22 17.15 322.14 17.15 322.14 36.72 305.22 36.72 305.22 17.15"/>
    <polyline class="cls-2" points="347.09 16.86 364.21 16.86 364.21 36.72 347.09 36.72 347.09 16.86"/>
    <polyline class="cls-2" points="394.44 17.15 435.03 17.15 435.03 36.72 411.95 36.72 411.95 28.01 394.44 28.01 394.44 17.15"/>
    <polyline class="cls-2" points="411.95 41.8 411.95 51.69 394.92 51.69 394.92 41.8 411.95 41.8"/>
    <polyline class="cls-2" points="369.29 59.12 375.46 59.12 375.46 64.5 435.03 64.5 435.03 83.87 375.55 83.87 375.55 76.92 369.29 76.92 369.29 59.12"/>
    <polyline class="cls-2" points="440.22 64.5 464.19 64.5 464.19 83.87 440.22 83.87 440.22 64.5"/>
    <polyline class="cls-2" points="464.19 34.56 469.27 34.56 469.27 40.34 474.85 40.34 474.85 46.4 481.89 46.4 481.89 40.24 487.66 40.24 487.66 34.56 492.26 34.56 492.26 53.94 487.27 53.94 487.27 59.8 482.19 59.8 482.19 66.06 474.65 66.06 474.65 60.1 468.78 60.1 468.78 54.03 464.19 54.03 464.19 34.56"/>
    <polyline class="cls-2" points="492.26 64.5 517.11 64.5 517.11 83.87 492.26 83.87 492.26 64.5"/>
    <polyline class="cls-2" points="523.08 58.44 527.77 58.44 527.77 64.5 587.84 64.5 587.84 83.38 527.87 83.38 527.87 77.51 523.08 77.51 523.08 58.44"/>
    <polyline class="cls-2" points="564.26 41.31 564.26 51.59 548.51 51.59 548.51 41.31 564.26 41.31"/>
    <polyline class="cls-2" points="547.63 17.35 587.84 17.35 587.84 36.23 564.26 36.23 564.26 28.21 547.63 28.21 547.63 17.35"/>
    <polyline class="cls-2" points="664.24 17.64 657.98 17.64 657.98 23.61 652.21 23.61 652.21 28.7 645.75 28.7 645.75 40.24 652.3 40.24 652.3 42.78 657.78 42.78 657.78 36.72 664.24 36.72 664.24 17.64"/>
    <polyline class="cls-2" points="616.99 46.21 621.98 46.21 621.98 52.37 627.26 52.37 627.26 58.34 632.64 58.34 632.64 64.21 664.24 64.21 664.24 83.38 634.21 83.38 634.21 77.8 627.55 77.8 627.55 71.45 621.98 71.45 621.98 65.48 616.99 65.48 616.99 46.21"/>
    <rect class="cls-2" x="592.63" y="64.5" width="24.36" height="19.37"/>
  </g>
  <g id="Слой_2" data-name="Слой 2">
    <polygon class="cls-3" points="94.4 4.63 94.4 64.6 159.85 64.6 159.85 51.59 119.15 51.59 119.15 4.63 94.4 4.63"/>
    <path class="cls-3" d="M230.28,4.63v13h-41V28h16.83V41.22H189.29V51.29h41V64.6s-60-.1-60,0V58.53h-5.87V10.79h6.26V4.63Z"/>
    <polygon class="cls-3" points="305.22 4.63 305.22 17.15 322.14 17.15 322.14 64.5 347.09 64.5 347.09 16.86 364.21 16.86 364.21 4.63 305.22 4.63"/>
    <polygon class="cls-3" points="375.46 4.63 375.46 10.89 369.29 10.89 369.29 59.12 375.46 59.12 375.46 64.5 435.03 64.5 435.03 51.69 394.92 51.69 394.92 41.8 411.95 41.8 411.95 28.01 394.44 28.01 394.44 17.15 435.03 17.15 435.03 4.63 375.46 4.63"/>
    <polygon class="cls-3" points="440.22 4.63 440.22 64.5 464.19 64.5 464.19 34.56 469.27 34.56 469.27 40.34 474.85 40.34 474.85 46.4 481.89 46.4 481.89 40.24 487.66 40.24 487.66 34.56 492.26 34.56 492.26 64.5 517.11 64.5 517.11 4.63 490.7 4.63 490.7 10.01 486.78 10.01 486.78 14.41 483.06 14.41 483.06 20.87 475.83 20.87 475.83 14.9 470.74 14.9 470.74 9.91 464.87 9.91 464.87 4.63 440.22 4.63"/>
    <path class="cls-3" d="M528.36,4.63v6.26h-5.28V58h4.69V64.5s60.07.59,60.07,0V51.59H548.51V41.32h15.75V28.21H547.63V17.35h40.21V4.63Z"/>
    <polygon class="cls-3" points="592.63 4.63 592.63 64.76 616.99 64.76 616.99 46.21 621.98 46.21 621.98 52.37 627.26 52.37 627.26 58.34 632.64 58.34 632.64 64.21 664.24 64.21 664.24 51.49 657.49 51.49 657.49 46.01 652.3 46.01 652.3 40.24 645.75 40.24 645.75 28.7 652.21 28.7 652.21 23.61 657.98 23.61 657.98 17.64 664.24 17.64 664.24 4.63 634.11 4.63 634.11 9.81 628.43 9.81 628.43 15.69 623.54 15.69 623.54 21.55 617.18 21.55 617.18 4.63 592.63 4.63"/>
    <path class="cls-3" d="M83.84,10.89V4.63H29.93V10.7H23.67V58h6.26v6H83.84V58h5.48V10.89ZM65.35,48.75h-17v-28h17Z"/>
    <polygon class="cls-3" points="263.74 28.21 293.28 28.21 293.28 34.08 299.84 34.08 299.84 58.53 294.26 58.53 294.26 64.6 240.75 64.6 240.75 57.95 234.69 57.95 234.69 10.6 240.26 10.6 240.26 4.63 299.84 4.63 299.84 18.13 259.24 18.13 259.24 46.7 276.26 46.7 276.26 41.02 263.94 41.02 263.74 28.21"/>
    <polygon class="cls-2" points="23.67 58.04 29.93 58.04 29.93 64.01 83.84 64.01 83.84 58.04 89.31 58.04 89.31 78.26 83.9 78.26 83.9 83.67 30.1 83.67 30.1 77.28 23.67 77.28 23.67 58.04"/>
    <rect class="cls-2" x="322.14" y="64.5" width="24.95" height="19.37"/>
    <rect class="cls-1" x="111.21" y="24.73" width="3.46" height="4.41"/>
    <rect class="cls-1" x="99.54" y="24.73" width="3.46" height="4.41"/>
    <rect class="cls-1" x="99.54" y="20.63" width="15.13" height="4.68"/>
    <rect class="cls-1" x="104.28" y="17.38" width="5.64" height="5.64"/>
    <rect class="cls-1" x="109.93" y="11.74" width="5.64" height="5.64"/>
    <rect class="cls-1" x="98.64" y="11.74" width="5.64" height="5.64"/>
    <polyline class="cls-4" points="643.79 86.02 643.79 70.91 650.64 70.91 650.64 74.19 657.49 74.19 657.49 68.41"/>
    <polyline class="cls-4" points="666.29 24 660.82 24 660.82 33.59"/>
    <line class="cls-4" x1="589.6" y1="69.88" x2="600.36" y2="69.88"/>
    <polyline class="cls-4" points="608.58 86.02 608.58 76.83 614.45 76.83 614.45 69.88 618.36 69.88"/>
    <polyline class="cls-4" points="589.6 74.19 576.61 74.19 576.61 80.74 566.71 80.74 566.71 68.41 559.47 68.41 559.47 70.91"/>
    <polyline class="cls-4" points="574.14 39.06 574.14 26.93 567.73 26.93 567.73 20.87 576.29 20.87 585.49 20.87"/>
    <polyline class="cls-4" points="519.95 71.5 507.81 71.5 507.81 78.93 502.92 78.93 502.92 69.88 489.42 69.88"/>
    <polyline class="cls-4" points="467.12 74.19 452.2 74.19 452.2 78.05 448.73 78.05 448.73 81.72"/>
    <polyline class="cls-4" points="420.55 41.02 420.55 26.79 428.19 26.79 428.19 22.04 436.99 22.04"/>
    <line class="cls-4" x1="382.99" y1="77.17" x2="382.99" y2="69.88"/>
    <polyline class="cls-4" points="366.55 69.88 385 69.88 403.44 69.88 403.44 76.04 394.44 76.04 394.44 80.67 388.08 80.67 388.08 87.98"/>
    <polyline class="cls-4" points="358.34 40.11 358.34 30.44 353.84 30.44 353.84 26.79"/>
    <polyline class="cls-4" points="319.79 71.1 331.73 71.1 331.73 77.17 348.95 77.17"/>
    <polyline class="cls-4" points="260.12 79.56 251.9 79.56 251.9 85.44"/>
    <line class="cls-4" x1="271.27" y1="80.67" x2="271.27" y2="86.22"/>
    <polyline class="cls-4" points="260.12 86.22 260.12 80.67 260.12 74.19 272.05 74.19 272.05 69.88 276.26 69.88"/>
    <polyline class="cls-4" points="221.31 40.11 221.31 28.11 211.79 28.11"/>
    <polyline class="cls-4" points="182.71 64.6 182.71 72.85 175.79 72.85 175.79 77.17"/>
    <line class="cls-4" x1="231.36" y1="78.05" x2="221.32" y2="78.05"/>
    <polyline class="cls-4" points="232.66 69.88 221.31 69.88 221.31 74.14 221.31 77.09 221.31 80.67 209.31 80.67 209.31 74.14 206.12 74.14"/>
    <polyline class="cls-4" points="161.22 69.88 152.02 69.88 152.02 75.26 144.88 75.26 144.88 84.46"/>
    <polyline class="cls-4" points="102.03 70.86 102.03 78.1 109.93 78.1 109.93 85.24"/>
    <polyline class="cls-4" points="42.06 80.05 56.05 80.05 56.05 74.14 61.83 74.14"/>
    <polyline class="cls-4" points="22.01 69.88 36 69.88 36 76.53 42.06 76.53 42.06 84.46"/>
    <polyline class="cls-5" points="639.62 64.21 639.62 55.24 643.79 55.24"/>
    <polyline class="cls-5" points="592.63 36.23 607.79 36.23 607.79 24 602.9 24 602.9 12.06"/>
    <polyline class="cls-5" points="535.6 4.63 535.6 19.7 540.29 19.7 540.29 28.79 534.62 28.79"/>
    <line class="cls-5" x1="448.73" y1="4.63" x2="448.73" y2="15"/>
    <polyline class="cls-5" points="517.11 16.86 502.92 16.86 502.92 24.39 497.64 24.39"/>
    <polyline class="cls-5" points="422.51 51.69 422.51 56.87 413.12 56.87"/>
    <polyline class="cls-5" points="315.29 17.15 315.29 9.04 331.34 9.04 331.34 4.63"/>
    <polyline class="cls-5" points="277.92 53.74 273.03 53.74 273.03 46.7"/>
    <polyline class="cls-5" points="234.69 43.13 241.92 43.13 241.92 34.56 254.25 34.56 254.25 28.11"/>
    <polyline class="cls-5" points="78.95 64.01 78.95 52.96 73.27 52.96 73.27 46.26"/>
    <polyline class="cls-5" points="23.67 18.91 33.55 18.91 33.55 14.27 42.06 14.27 42.06 4.63"/>
    <polyline class="cls-5" points="176.87 4.63 176.87 18.23 169.14 18.23 169.14 23.9"/>
    <polyline class="cls-5" points="94.4 39.36 102.03 39.36 102.03 46.89"/>
  </g>
</svg>
