<svg width="60" height="60" viewBox="0 0 340 340" fill="none" xmlns="http://www.w3.org/2000/svg">
<g clip-path="url(#clip0_3_2)">
<path d="M169.516 0C76.044 0 0 76.045 0 169.517C0 262.988 76.044 339.033 169.516 339.033C262.988 339.033 339.032 262.989 339.032 169.517C339.032 76.045 262.989 0 169.516 0ZM143.367 17.224C129.607 29.004 116.434 43.669 105.851 59.28C101.085 66.311 96.8 73.571 92.995 81.017H42.93C66.133 47.926 101.962 24.312 143.367 17.224ZM162.016 244.596H102.645C93.711 225.233 87.541 202.896 86.505 177.806H162.016V244.596ZM33.628 96.017H86.09C77.336 117.31 72.382 139.85 71.496 162.807H15.156C16.19 138.717 22.756 116.037 33.628 96.017ZM15.224 177.807H71.49C72.353 201.124 77.258 223.458 86.133 244.597H34.51C23.359 224.625 16.506 201.944 15.224 177.807ZM44.05 259.596H93.207C96.956 266.745 101.175 273.746 105.878 280.584C118.356 298.727 131.768 312.222 143.096 321.763C102.469 314.734 67.229 291.787 44.05 259.596ZM162.016 317.587C145.262 305.318 125.539 285.749 110.428 259.596H162.016V317.587ZM162.016 162.807H86.505C87.439 139.487 92.744 117.141 102.339 96.017H162.017L162.016 162.807ZM162.016 81.017H109.99C112.546 76.515 115.3 72.073 118.266 67.697C133.708 44.917 150.635 30 162.016 21.547V81.017ZM323.878 162.807H267.537C266.651 139.85 261.697 117.31 252.943 96.017H305.404C316.276 116.037 322.844 138.717 323.878 162.807ZM296.104 81.017H246.04C242.235 73.571 237.949 66.311 233.184 59.28C222.601 43.668 209.424 29.007 195.663 17.223C237.068 24.311 272.898 47.925 296.104 81.017ZM177.016 21.546C188.397 29.999 205.324 44.916 220.766 67.696C223.732 72.072 226.486 76.514 229.042 81.016H177.016V21.546ZM177.016 96.017H236.694C246.289 117.141 251.594 139.487 252.528 162.807H177.016V96.017ZM177.016 177.807H252.528C251.493 202.897 245.322 225.234 236.388 244.597H177.016V177.807ZM177.016 259.596H228.604C213.493 285.748 193.77 305.318 177.016 317.587V259.596ZM195.94 321.763C207.267 312.223 220.678 298.725 233.155 280.585C237.858 273.747 242.077 266.746 245.826 259.597H294.983C271.805 291.786 236.566 314.733 195.94 321.763ZM304.523 244.596H252.901C261.776 223.457 266.681 201.124 267.544 177.806H323.809C322.526 201.944 315.674 224.625 304.523 244.596Z" fill="white"/>
</g>
<defs>
<clipPath id="clip0_3_2">
<rect width="339.033" height="339.033" fill="white"/>
</clipPath>
</defs>
</svg>
